<?xml version="1.0" encoding="utf-8"?>
<!-- Generator: Adobe Illustrator 22.0.0, SVG Export Plug-In . SVG Version: 6.00 Build 0)  -->
<svg version="1.1" id="Layer_1" xmlns="http://www.w3.org/2000/svg" xmlns:xlink="http://www.w3.org/1999/xlink" x="0px" y="0px"
	 viewBox="0 0 440.6 94.6" style="enable-background:new 0 0 440.6 94.6;" xml:space="preserve">
<style type="text/css">
	.st0{fill:#C65F58;stroke:#C65F58;stroke-width:2;stroke-miterlimit:10;}
</style>
<g>
	<path class="st0" d="M69.9,43.1c0,1.1-0.5,2.1-1.6,2.9c-1,0.8-3.1,1.5-6,2.2c-1.1,0.2-2.2,0.5-3.3,0.7c-1.1,0.2-2.2,0.4-3.2,0.7
		c-0.8,3.1-1.6,6-2.5,8.9c-0.8,2.9-1.6,5.7-2.4,8.3c-0.7,2.7-1.4,5.1-2.1,7.3c-0.6,2.2-1.2,4.1-1.6,5.7c-2.1-0.2-4-0.6-5.8-1.1
		c-1.8-0.5-3.2-1.2-4.3-2.1c-1.1-0.9-1.9-2-2.3-3.3c-0.4-1.3-0.2-2.9,0.5-4.7l5.1-14.5c-3.4,1.1-6.7,2.2-9.8,3.2
		c-3.2,1-6.5,1.9-10,2.6c0.2-1.5,0.6-2.8,1.1-3.9c0.5-1.2,1.2-2.3,2.2-3.3c1-1,2.4-1.9,4.1-2.7c1.7-0.8,4-1.5,6.8-2.2
		c1.4-0.3,2.8-0.6,4.2-0.9c1.4-0.3,2.8-0.5,4.2-0.8c1.5-4.3,3-8.5,4.5-12.7c1.5-4.2,2.9-8,4.3-11.4c-6.5,1-12,2.7-16.4,4.8
		c-4.4,2.2-7.9,4.5-10.4,7.1c-2.5,2.5-4.1,5-4.7,7.5c-0.6,2.5-0.5,4.5,0.5,6.1c-3.5-0.3-6.4-1-8.5-2.2c-2.1-1.1-3.6-2.4-4.6-3.9
		s-1.4-3-1.3-4.6c0.1-1.6,0.7-3,1.6-4.2c2-2.5,5.3-5,9.8-7.6c4.5-2.6,10-4.8,16.4-6.6c6.4-1.8,13.4-3,21.1-3.5
		c7.7-0.5,15.8,0,24.3,1.5c4.1,0.9,7,1.9,8.6,3.1c1.6,1.2,2.5,2.4,2.8,3.6c-6.5-1.1-12.5-1.8-18.1-2.1c-5.5-0.3-10.6-0.2-15.2,0.2
		c1.6,0.8,2.6,1.8,3.1,3c0.4,1.2,0.5,2.3,0.3,3.4l-4.2,16.4c3.1-0.4,5.7-0.7,8-0.8C67.4,43.1,69,43,69.9,43.1z"/>
	<path class="st0" d="M79.8,66.4c-0.6,2.3-0.5,3.3,0.1,3.3c0.6-0.1,1.7-0.9,3.1-2.4c1.4-1.5,3.1-3.5,5.1-6c2-2.5,4-5,6-7.5
		c0,0.1,0.1,0.3,0.4,0.5c0.2,0.3,0.4,0.7,0.6,1.1c0.2,0.5,0.2,1,0.1,1.7c-0.1,0.6-0.5,1.3-1,2.1c-1.6,1.9-3,3.6-4.2,5.1
		c-1.2,1.5-2.4,2.8-3.5,4c-1.1,1.2-2.3,2.3-3.4,3.4c-1.2,1-2.5,2.1-4,3.1c-0.8,0.6-1.8,1-2.9,1.1c-1.1,0.1-2.2,0-3.1-0.4
		c-1-0.3-1.8-0.8-2.5-1.6c-0.7-0.7-1-1.6-0.9-2.5c0.2-1.9,0.4-3.8,0.8-5.8c0.4-2,0.9-4.2,1.6-6.5c0.8-3,1.7-6,2.6-9.1
		c0.9-3.1,1.8-6,2.7-8.8c0.9-2.8,1.8-5.4,2.6-7.8c0.8-2.4,1.6-4.4,2.2-6c0.4-1,1.1-1.6,2.2-1.9c1-0.3,2.1-0.5,3.1-0.4
		c1,0,2,0.2,2.7,0.5c0.8,0.3,1.1,0.6,1,1L79.8,66.4z"/>
	<path class="st0" d="M122.8,44.2c0.3,1.7-0.2,3.1-1.7,4.3c0.6,0.2,1.2,0.3,1.6,0.5c0.4,0.2,0.6,0.3,0.5,0.5c-0.6,3-1.4,5.8-2.4,8.6
		c-1,2.7-1.8,5.5-2.4,8.3c-0.6,2.3-0.5,3.3,0.1,3.3c0.6-0.1,1.6-0.9,3-2.4c1.4-1.5,3-3.5,4.9-6c1.9-2.5,3.8-5,5.9-7.5
		c0,0.1,0.1,0.3,0.4,0.5c0.2,0.3,0.4,0.7,0.6,1.1c0.2,0.5,0.2,1,0.1,1.7c-0.1,0.6-0.5,1.3-1,2.1c-1.6,1.9-3,3.6-4.2,5.1
		c-1.2,1.5-2.4,2.8-3.5,4c-1.1,1.2-2.3,2.3-3.4,3.4c-1.2,1-2.5,2.1-4,3.1c-0.8,0.6-1.7,1-2.7,1.2c-1,0.2-2,0.1-2.9-0.1
		c-0.9-0.2-1.7-0.5-2.4-1c-0.7-0.5-1.1-1-1.3-1.7c-0.2-0.6-0.2-1.2-0.2-1.8c0-0.6,0.1-1.3,0.2-2.1c-1.8,1.7-3.7,3.2-5.8,4.6
		c-2.1,1.4-4.1,2.1-5.9,2.1c-1.8,0-3.2-0.4-4.2-1.1c-1-0.7-1.7-1.7-2.1-2.8c-0.8-2.7-0.8-6,0.1-9.7c0.9-3.7,2.4-7.2,4.7-10.6
		c2.2-3.3,5-6.2,8.5-8.5c3.4-2.3,7.3-3.4,11.5-3.3c2,0,3.8,0.3,5.5,1C121.5,41.8,122.4,42.8,122.8,44.2z M109.1,50
		c2.1-0.4,3.7-1,4.9-1.9c1.2-0.9,1.9-1.9,2.2-3.1c0.1-0.5-0.1-1-0.7-1.6c-0.5-0.6-1.4-0.6-2.7-0.2c-1.8,0.5-3.5,1.9-5.1,4.3
		c-1.7,2.4-3.1,5-4.3,7.9c-1.2,2.9-2.2,5.7-2.8,8.4c-0.6,2.7-0.8,4.8-0.6,6c0.1,0.6,0.5,0.9,1.1,0.8c0.7-0.1,1.4-0.5,2.3-1.1
		c0.8-0.6,1.7-1.3,2.7-2.2c0.9-0.8,1.8-1.7,2.5-2.6c0.6-2.3,1.2-4.5,1.9-6.9c0.7-2.3,1.4-4.5,2.1-6.5
		C111.1,51.2,109.9,50.8,109.1,50z"/>
	<path class="st0" d="M163.6,45.2c0.2,2.2-0.3,4.8-1.6,7.9c-1.3,3.1-3.1,6.1-5.3,9c-2.2,2.9-4.5,5.6-7.1,8.1
		c-2.5,2.5-4.9,4.2-7.1,5.3c-2,0.9-4,1-5.9,0.5c-1.9-0.6-3.2-1.9-3.8-4c-0.4-1.5-0.7-3.3-1-5.6c-0.3-2.3-0.4-4.8-0.4-7.4
		c0-2.7,0.1-5.4,0.4-8.2c0.3-2.8,0.8-5.3,1.5-7.7c0.2-1,0.9-1.6,1.9-2c1-0.4,2-0.5,3.1-0.4c1,0.1,2,0.3,2.8,0.6
		c0.8,0.3,1.3,0.6,1.3,1c-0.5,2.1-0.9,4.4-1.1,6.9c-0.3,2.5-0.4,5-0.5,7.3c0,2.3,0,4.5,0.1,6.3c0.1,1.9,0.2,3.2,0.4,4
		c0.5,2.2,1,3.2,1.4,3.2c0.5,0,1.4-0.8,2.8-2.2c1-1,2-2.4,3-4c1-1.6,1.9-3.4,2.8-5.3c0.8-1.9,1.5-3.8,2.1-5.7c0.6-1.9,0.9-3.8,1-5.5
		c0.1-1.7,0-3.3-0.5-4.6c-0.4-1.3-1.3-2.3-2.5-2.8c1.4-0.3,2.8-0.4,4.2-0.4c1.4,0.1,2.7,0.4,3.8,0.8c1.1,0.5,2.1,1.1,2.8,2
		C163,43.2,163.4,44.1,163.6,45.2z"/>
	<path class="st0" d="M174.2,76.2c-3.2,0-5.7-0.9-7.4-2.7c-1.7-1.8-2.7-4-3-6.6c-0.3-2.7,0-5.5,1-8.6c1-3.1,2.5-6,4.5-8.6
		c2.1-2.7,4.6-4.9,7.7-6.6c3.1-1.8,6.5-2.7,10.4-2.7c3,0,5.2,0.7,6.8,2.2c1.5,1.5,2.5,3.4,2.8,5.7c0.3,2.3,0.1,4.9-0.7,7.7
		c-0.8,2.8-2,5.5-3.6,8.1c1.1,0,2.3-0.4,3.5-1.3s2.3-1.8,3.4-3c1-1.1,2-2.3,2.9-3.4c0.9-1.2,1.6-2.1,2.2-2.7c0,0.1,0.1,0.3,0.3,0.5
		c0.2,0.3,0.4,0.7,0.5,1.1c0.1,0.5,0.1,1,0.1,1.7c-0.1,0.6-0.4,1.3-1,2.1c-0.4,0.4-0.7,0.8-1,1.2c-0.2,0.4-0.5,0.8-0.8,1.2
		c-1,1.1-2,2.1-3,3c-1,0.8-1.9,1.5-2.7,1.9c-2.7,1.4-5.2,2-7.5,1.9c-2,2.3-4.3,4.2-6.9,5.7C180.1,75.5,177.3,76.2,174.2,76.2z
		 M175.9,72c1.1,0,2.3-0.6,3.4-1.9c1.1-1.3,2.3-2.8,3.4-4.7c-1.2-1.2-2.1-2.7-2.5-4.6c-0.2-1-0.2-1.9,0.2-2.7
		c0.4-0.8,0.9-1.4,1.6-1.8c0.7-0.4,1.4-0.7,2.3-0.7s1.6,0.2,2.2,0.7c0.6-1.8,1-3.4,1.4-5.1c0.4-1.6,0.6-3,0.7-4.3
		c0.1-1.3,0-2.3-0.3-3.1c-0.3-0.8-0.7-1.1-1.4-1.1c-1.4,0-2.9,0.7-4.5,2.2c-1.5,1.4-2.9,3.2-4.2,5.4c-1.2,2.2-2.3,4.5-3.3,7
		c-0.9,2.5-1.5,4.9-1.8,7c-0.3,2.2-0.2,4,0.2,5.4C173.7,71.3,174.5,72,175.9,72z"/>
	<path class="st0" d="M219.2,71.5c0.1-1.4,0.2-2.8,0.4-4.2c0.2-1.4,0.4-2.8,0.8-4.2c-2.2,2.6-4.1,4.8-5.8,6.5
		c-1.7,1.8-3.8,3.5-6.3,5.2c-0.8,0.6-1.8,1-2.9,1.1c-1.1,0.1-2.2,0-3.1-0.4c-1-0.3-1.8-0.8-2.4-1.6c-0.6-0.7-0.9-1.6-0.8-2.5
		c0.2-4.6,1.2-9.4,2.9-14.3c1.7-5,3.5-9.7,5.6-14.2c0.4-1,1.1-1.6,2.2-1.9c1-0.3,2.1-0.5,3.2-0.4c1.1,0,2,0.2,2.8,0.5
		c0.8,0.3,1.1,0.6,1,1l-7.2,24.3c-0.6,2.3-0.5,3.4,0.1,3.3c0.6,0,1.6-0.8,3-2.2c1.4-1.4,3-3.4,4.8-5.7c1.9-2.4,3.7-4.8,5.7-7.3
		c0.7-2,1.5-4,2.3-5.9c0.8-1.9,1.6-3.8,2.5-5.6c0.4-1,1.1-1.6,2.2-1.9c1-0.3,2.1-0.5,3.1-0.4c1,0,2,0.2,2.7,0.5c0.8,0.3,1.1,0.6,1,1
		l-7.2,24.3c-0.6,2.3-0.5,3.3,0.1,3.3c0.6-0.1,1.7-0.9,3.1-2.4c1.4-1.5,3.1-3.5,5.1-6c2-2.5,4-5,6-7.5c0,0.1,0.1,0.3,0.4,0.5
		c0.2,0.3,0.4,0.7,0.6,1.1c0.2,0.5,0.2,1,0.1,1.7c-0.1,0.6-0.5,1.3-1,2.1c-1.6,1.9-3,3.6-4.2,5.1c-1.2,1.5-2.4,2.8-3.5,4
		c-1.1,1.2-2.3,2.3-3.4,3.4c-1.2,1-2.5,2.1-4,3.1c-0.8,0.6-1.8,1-2.9,1.1c-1.1,0.1-2.2,0-3.2-0.4c-1-0.3-1.8-0.8-2.5-1.6
		C219.4,73.3,219.1,72.5,219.2,71.5z"/>
	<path class="st0" d="M251.8,55.6l6.3-9.1c0.1-0.2,0.4-0.6,1-1.3c0.6-0.7,1.2-1.4,2-2.1c0.8-0.7,1.6-1.4,2.7-1.9
		c1-0.6,2-0.8,3.1-0.7c1.4,0.1,2.5,0.4,3,1c0.6,0.6,0.9,1.2,1.1,1.8c0.2,0.8,0.1,1.9-0.2,3.4c-0.3,1.5-0.7,3-1.3,4.7
		c-0.5,1.7-1,3.3-1.5,4.9c-0.5,1.6-0.8,3-1,4.1c-0.6,2.3-0.5,3.6,0.1,4c0.6,0.4,1.5,0.2,2.8-0.6c1.3-0.8,2.8-2.2,4.5-4
		c1.7-1.8,3.4-3.8,5.1-6c0,0.1,0.1,0.3,0.4,0.5c0.2,0.3,0.4,0.7,0.5,1.1c0.1,0.5,0.1,1,0.1,1.7c-0.1,0.6-0.4,1.3-1,2.1
		c-2.3,2.8-4.7,5.1-7.2,6.9s-5.5,2.7-8.9,2.7c-1.6,0-3.1-0.4-4.4-1.1c-1.3-0.8-2.1-2-2.4-3.8c0-0.5,0.1-1.2,0.2-2.1
		c0.2-0.9,0.4-1.8,0.7-2.8c0.3-1,0.6-2.1,1-3.1c0.3-1.1,0.6-2,0.8-2.8c0.4-1.2,0.5-1.8,0.2-1.9c-0.3,0-0.7,0.2-1.2,0.7
		c-0.5,0.5-1.1,1.1-1.6,1.8c-0.6,0.7-1,1.3-1.2,1.7c-0.7,1.4-1.7,3-3,4.9c-1.3,1.9-2.4,3.6-3.3,5.1l-0.7,2.8c-1,3.5-2,5.8-3.1,6.6
		c-1.1,0.9-2.6,1.3-4.5,1.2c-1.2-0.1-2.2-0.5-2.8-1.2c-0.7-0.7-0.9-1.8-0.5-3.1c0.4-1.9,0.9-4.1,1.4-6.5c0.6-2.4,1.2-4.9,2-7.4
		c0.8-2.6,1.6-5.1,2.5-7.7c0.9-2.5,1.9-5,2.9-7.3c0.4-1,1.1-1.6,2.1-2c1-0.4,2.1-0.5,3.1-0.4c1.1,0.1,2,0.3,2.8,0.6
		c0.8,0.3,1.1,0.6,1,1L251.8,55.6z"/>
	<path class="st0" d="M350.9,43.1c0,1.1-0.5,2.1-1.6,2.9c-1,0.8-3.1,1.5-6,2.2c-1.1,0.2-2.2,0.5-3.3,0.7s-2.2,0.4-3.2,0.7
		c-0.8,3.1-1.6,6-2.5,8.9s-1.6,5.7-2.4,8.3c-0.7,2.7-1.4,5.1-2.1,7.3c-0.6,2.2-1.2,4.1-1.6,5.7c-2.1-0.2-4-0.6-5.8-1.1
		c-1.8-0.5-3.2-1.2-4.3-2.1c-1.1-0.9-1.9-2-2.3-3.3c-0.4-1.3-0.2-2.9,0.5-4.7l5.1-14.5c-3.4,1.1-6.7,2.2-9.8,3.2
		c-3.2,1-6.5,1.9-10,2.6c0.2-1.5,0.6-2.8,1.1-3.9c0.5-1.2,1.2-2.3,2.2-3.3c1-1,2.4-1.9,4.1-2.7c1.7-0.8,4-1.5,6.8-2.2
		c1.4-0.3,2.8-0.6,4.2-0.9c1.4-0.3,2.8-0.5,4.2-0.8c1.5-4.3,3-8.5,4.5-12.7c1.5-4.2,2.9-8,4.3-11.4c-6.5,1-12,2.7-16.4,4.8
		c-4.4,2.2-7.9,4.5-10.4,7.1c-2.5,2.5-4.1,5-4.7,7.5c-0.6,2.5-0.5,4.5,0.5,6.1c-3.5-0.3-6.4-1-8.5-2.2c-2.1-1.1-3.6-2.4-4.6-3.9
		c-1-1.4-1.4-3-1.3-4.6c0.1-1.6,0.7-3,1.6-4.2c2-2.5,5.3-5,9.8-7.6c4.5-2.6,10-4.8,16.4-6.6c6.4-1.8,13.4-3,21.1-3.5
		c7.7-0.5,15.8,0,24.3,1.5c4.1,0.9,7,1.9,8.6,3.1c1.6,1.2,2.5,2.4,2.8,3.6c-6.5-1.1-12.5-1.8-18.1-2.1c-5.5-0.3-10.6-0.2-15.2,0.2
		c1.6,0.8,2.6,1.8,3.1,3c0.4,1.2,0.5,2.3,0.3,3.4l-4.2,16.4c3.1-0.4,5.7-0.7,8-0.8C348.5,43.1,350.1,43,350.9,43.1z"/>
	<path class="st0" d="M370.2,71.5c0.1-1.4,0.2-2.8,0.4-4.2c0.2-1.4,0.4-2.8,0.8-4.2c-2.2,2.6-4.1,4.8-5.8,6.5
		c-1.7,1.8-3.8,3.5-6.3,5.2c-0.8,0.6-1.8,1-2.9,1.1c-1.1,0.1-2.2,0-3.1-0.4c-1-0.3-1.8-0.8-2.4-1.6c-0.6-0.7-0.9-1.6-0.8-2.5
		c0.2-4.6,1.2-9.4,2.9-14.3c1.7-5,3.5-9.7,5.6-14.2c0.4-1,1.1-1.6,2.2-1.9c1-0.3,2.1-0.5,3.2-0.4c1.1,0,2,0.2,2.8,0.5
		c0.8,0.3,1.1,0.6,1,1l-7.2,24.3c-0.6,2.3-0.5,3.4,0.1,3.3c0.6,0,1.6-0.8,3-2.2c1.4-1.4,3-3.4,4.8-5.7c1.9-2.4,3.7-4.8,5.7-7.3
		c0.7-2,1.5-4,2.3-5.9c0.8-1.9,1.6-3.8,2.5-5.6c0.4-1,1.1-1.6,2.2-1.9c1-0.3,2.1-0.5,3.1-0.4c1,0,2,0.2,2.7,0.5c0.8,0.3,1.1,0.6,1,1
		l-7.2,24.3c-0.6,2.3-0.5,3.3,0.1,3.3c0.6-0.1,1.7-0.9,3.1-2.4c1.4-1.5,3.1-3.5,5.1-6c2-2.5,4-5,6-7.5c0,0.1,0.1,0.3,0.4,0.5
		c0.2,0.3,0.4,0.7,0.6,1.1c0.2,0.5,0.2,1,0.1,1.7c-0.1,0.6-0.5,1.3-1,2.1c-1.6,1.9-3,3.6-4.2,5.1c-1.2,1.5-2.4,2.8-3.5,4
		c-1.1,1.2-2.3,2.3-3.4,3.4c-1.2,1-2.5,2.1-4,3.1c-0.8,0.6-1.8,1-2.9,1.1c-1.1,0.1-2.2,0-3.2-0.4c-1-0.3-1.8-0.8-2.5-1.6
		C370.4,73.3,370.1,72.5,370.2,71.5z"/>
	<path class="st0" d="M402.6,56c2.3-3,4.4-5.5,6.1-7.5c1.7-2,3.3-3.6,4.6-4.8c1.3-1.2,2.5-2,3.4-2.5c1-0.4,1.9-0.7,2.7-0.7
		c2.5,0,4,1.1,4.5,3.4c0.2,0.9,0.3,1.9,0.1,3.1c-0.2,1.2-0.5,2.7-1,4.4c-0.5,1.7-1.1,3.8-1.9,6.2c-0.8,2.4-1.6,5.3-2.6,8.7
		c-0.6,2.3-0.5,3.3,0.1,3.3c0.6-0.1,1.7-0.9,3.1-2.4c1.4-1.5,3.1-3.5,5.1-6c2-2.5,4-5,6-7.5c0,0.1,0.1,0.3,0.4,0.5
		c0.2,0.3,0.4,0.7,0.6,1.1c0.2,0.5,0.2,1,0.1,1.7c-0.1,0.6-0.5,1.3-1,2.1c-1.6,1.9-3,3.6-4.2,5.1c-1.2,1.5-2.4,2.8-3.5,4
		c-1.1,1.2-2.3,2.3-3.4,3.4c-1.2,1-2.5,2.1-4,3.1c-0.9,0.6-1.9,1-3,1.1c-1.1,0.1-2.1,0-3.1-0.4c-1-0.3-1.9-0.8-2.5-1.6
		c-0.7-0.7-1-1.6-0.9-2.5c0.2-2.6,0.6-5.4,1.4-8.4c0.8-3,1.7-6.2,2.8-9.5c0.3-1,0.3-1.7-0.2-1.9c-0.4-0.2-1.1,0.1-2,1
		c-1.3,1.3-2.8,3-4.7,5.1c-1.8,2.1-3.4,4-4.8,5.8l-1.2,4.6c-1,3.5-2,5.8-3.1,6.6c-1.1,0.9-2.6,1.3-4.5,1.2c-1.2-0.1-2.2-0.5-2.8-1.2
		c-0.7-0.7-0.9-1.8-0.5-3.1c0.4-1.9,0.9-4.1,1.5-6.5c0.6-2.4,1.2-4.9,2-7.4c0.8-2.6,1.6-5.1,2.5-7.7c0.9-2.5,1.9-5,2.9-7.3
		c0.4-1,1.1-1.6,2.1-2c1-0.4,2.1-0.5,3.1-0.4c1.1,0.1,2,0.3,2.8,0.6c0.8,0.3,1.1,0.6,1,1L402.6,56z"/>
</g>
</svg>
